# xmcd
#
# Track frame offsets:
#	150
#	13541
#	26115
#	40142
#	52441
#	63805
#	73137
#	86981
#	96991
#	107874
#	121635
#	132759
#	144358
#	156260
#	166000
#	175428
#	187216
#	198592
#	209381
#	221262
#	233836
#	246503
#	258515
#	267236
#	278934
#
# Disc length: 3840 seconds
#
# Revision: 0
# Processed by: cddbd v1.5.2PL0 Copyright (c) Steve Scherf et al.
# Submitted via: dBpowerAMP V4.0
#
DISCID=800efe19
DTITLE=Various Artist - The Broken Circle Repared CD1
DYEAR=2013
DGENRE=Country
TTITLE0=Brown's Ferry Four - Will The Circle Be Unbroken (1946)
TTITLE1=Johnny Cash - Folsom Prison Blues (1957)
TTITLE2=Bill Monroe - Wayfaring Stranger (1950)
TTITLE3=Patsy Cline - Crazy (1961)
TTITLE4=The Stanley Brothers - Over In The Gloryland (1950)
TTITLE5=Glen Campbell - Truck Driving Man (1962)
TTITLE6=Wima Lee and Stoney Cooper - Sunny Side Of The Montain (1951)
TTITLE7=Dolly Parton - The Love You Gave (1962)
TTITLE8=Jim and Jesse - Are You Missing Me (1952)
TTITLE9=Willie Nelson - Funny How Time Slips Away (1962)
TTITLE10=Molly O'Day and The Cumberland Montain Boys - Higher In My Prayers (1953)
TTITLE11=George Jones - She Thinks I Still Care (1962)
TTITLE12=Jim Eanes and The Shenandoah Valley Boys - Tomorrow May Be Different (1952)
TTITLE13=Faron Young - Hello Walls (1961)
TTITLE14=Hobo Jack Adkins - Going Back To Old Kentucky (1953)
TTITLE15=Jim Reeves - According To My Heart (1958)
TTITLE16=Mac Wiseman - Going Like A Wildfire (1951)
TTITLE17=Leroy Von Dyke - Walk On By (1961)
TTITLE18=The Stanley Brothers - Wake Up Sweetheart (1953)
TTITLE19=Johnny Cash - Peace In The Valley (1962)
TTITLE20=Flatt and Scruggs - Doin' My Time (1951)
TTITLE21=Loretta Lynn - Succes (1962)
TTITLE22=Jimmy Martin and The Osbome Brothers - She's Just A Cute Thing (1951)
TTITLE23=Glen Campbell - Turn Arround, Look At Me (1961)
TTITLE24=Bill Monroe and His Blue Grass Boys - Blue Moon Of Kentucky (1947)
EXTD=
EXTT0=
EXTT1=
EXTT2=
EXTT3=
EXTT4=
EXTT5=
EXTT6=
EXTT7=
EXTT8=
EXTT9=
EXTT10=
EXTT11=
EXTT12=
EXTT13=
EXTT14=
EXTT15=
EXTT16=
EXTT17=
EXTT18=
EXTT19=
EXTT20=
EXTT21=
EXTT22=
EXTT23=
EXTT24=
PLAYORDER=
